<svg xmlns="http://www.w3.org/2000/svg" xmlns:xlink="http://www.w3.org/1999/xlink" zoomAndPan="magnify" preserveAspectRatio="xMidYMid meet" version="1.0" viewBox="94.63 165.3 193.54 32.37"><defs><g/><clipPath id="0a3202b236"><path d="M 167.40625 167.695312 L 192.90625 167.695312 L 192.90625 197.695312 L 167.40625 197.695312 Z M 167.40625 167.695312 " clip-rule="nonzero"/></clipPath></defs><g fill="#545454" fill-opacity="1"><g transform="translate(92.751774, 182.265926)"><g><path d="M 2.25 -11.953125 L 3.859375 -11.953125 L 3.859375 0 L 2.25 0 Z M 3.0625 -14.5625 C 2.726562 -14.5625 2.445312 -14.675781 2.21875 -14.90625 C 1.988281 -15.132812 1.875 -15.40625 1.875 -15.71875 C 1.875 -16.019531 1.988281 -16.285156 2.21875 -16.515625 C 2.445312 -16.742188 2.726562 -16.859375 3.0625 -16.859375 C 3.394531 -16.859375 3.671875 -16.75 3.890625 -16.53125 C 4.117188 -16.3125 4.234375 -16.050781 4.234375 -15.75 C 4.234375 -15.414062 4.117188 -15.132812 3.890625 -14.90625 C 3.671875 -14.675781 3.394531 -14.5625 3.0625 -14.5625 Z M 3.0625 -14.5625 "/></g></g></g><g fill="#545454" fill-opacity="1"><g transform="translate(98.864154, 182.265926)"><g><path d="M 8.34375 -12.046875 C 9.84375 -12.046875 11.035156 -11.609375 11.921875 -10.734375 C 12.804688 -9.859375 13.25 -8.585938 13.25 -6.921875 L 13.25 0 L 11.625 0 L 11.625 -6.765625 C 11.625 -8.015625 11.3125 -8.960938 10.6875 -9.609375 C 10.070312 -10.265625 9.191406 -10.59375 8.046875 -10.59375 C 6.753906 -10.59375 5.734375 -10.207031 4.984375 -9.4375 C 4.234375 -8.675781 3.859375 -7.617188 3.859375 -6.265625 L 3.859375 0 L 2.25 0 L 2.25 -11.953125 L 3.796875 -11.953125 L 3.796875 -9.75 C 4.234375 -10.476562 4.84375 -11.039062 5.625 -11.4375 C 6.40625 -11.84375 7.3125 -12.046875 8.34375 -12.046875 Z M 8.34375 -12.046875 "/></g></g></g><g fill="#545454" fill-opacity="1"><g transform="translate(114.247359, 182.265926)"><g><path d="M 6.203125 -15.609375 C 5.503906 -15.609375 4.976562 -15.414062 4.625 -15.03125 C 4.269531 -14.65625 4.09375 -14.097656 4.09375 -13.359375 L 4.09375 -11.953125 L 7.765625 -11.953125 L 7.765625 -10.59375 L 4.140625 -10.59375 L 4.140625 0 L 2.515625 0 L 2.515625 -10.59375 L 0.390625 -10.59375 L 0.390625 -11.953125 L 2.515625 -11.953125 L 2.515625 -13.421875 C 2.515625 -14.515625 2.828125 -15.378906 3.453125 -16.015625 C 4.085938 -16.648438 4.984375 -16.96875 6.140625 -16.96875 C 6.585938 -16.96875 7.023438 -16.898438 7.453125 -16.765625 C 7.878906 -16.640625 8.234375 -16.457031 8.515625 -16.21875 L 7.96875 -15.015625 C 7.5 -15.410156 6.910156 -15.609375 6.203125 -15.609375 Z M 6.203125 -15.609375 "/></g></g></g><g fill="#545454" fill-opacity="1"><g transform="translate(123.768316, 182.265926)"><g><path d="M 2.25 -11.953125 L 3.859375 -11.953125 L 3.859375 0 L 2.25 0 Z M 3.0625 -14.5625 C 2.726562 -14.5625 2.445312 -14.675781 2.21875 -14.90625 C 1.988281 -15.132812 1.875 -15.40625 1.875 -15.71875 C 1.875 -16.019531 1.988281 -16.285156 2.21875 -16.515625 C 2.445312 -16.742188 2.726562 -16.859375 3.0625 -16.859375 C 3.394531 -16.859375 3.671875 -16.75 3.890625 -16.53125 C 4.117188 -16.3125 4.234375 -16.050781 4.234375 -15.75 C 4.234375 -15.414062 4.117188 -15.132812 3.890625 -14.90625 C 3.671875 -14.675781 3.394531 -14.5625 3.0625 -14.5625 Z M 3.0625 -14.5625 "/></g></g></g><g fill="#545454" fill-opacity="1"><g transform="translate(129.880697, 182.265926)"><g><path d="M 8.34375 -12.046875 C 9.84375 -12.046875 11.035156 -11.609375 11.921875 -10.734375 C 12.804688 -9.859375 13.25 -8.585938 13.25 -6.921875 L 13.25 0 L 11.625 0 L 11.625 -6.765625 C 11.625 -8.015625 11.3125 -8.960938 10.6875 -9.609375 C 10.070312 -10.265625 9.191406 -10.59375 8.046875 -10.59375 C 6.753906 -10.59375 5.734375 -10.207031 4.984375 -9.4375 C 4.234375 -8.675781 3.859375 -7.617188 3.859375 -6.265625 L 3.859375 0 L 2.25 0 L 2.25 -11.953125 L 3.796875 -11.953125 L 3.796875 -9.75 C 4.234375 -10.476562 4.84375 -11.039062 5.625 -11.4375 C 6.40625 -11.84375 7.3125 -12.046875 8.34375 -12.046875 Z M 8.34375 -12.046875 "/></g></g></g><g fill="#545454" fill-opacity="1"><g transform="translate(145.263902, 182.265926)"><g><path d="M 2.25 -11.953125 L 3.859375 -11.953125 L 3.859375 0 L 2.25 0 Z M 3.0625 -14.5625 C 2.726562 -14.5625 2.445312 -14.675781 2.21875 -14.90625 C 1.988281 -15.132812 1.875 -15.40625 1.875 -15.71875 C 1.875 -16.019531 1.988281 -16.285156 2.21875 -16.515625 C 2.445312 -16.742188 2.726562 -16.859375 3.0625 -16.859375 C 3.394531 -16.859375 3.671875 -16.75 3.890625 -16.53125 C 4.117188 -16.3125 4.234375 -16.050781 4.234375 -15.75 C 4.234375 -15.414062 4.117188 -15.132812 3.890625 -14.90625 C 3.671875 -14.675781 3.394531 -14.5625 3.0625 -14.5625 Z M 3.0625 -14.5625 "/></g></g></g><g fill="#545454" fill-opacity="1"><g transform="translate(151.376282, 182.265926)"><g><path d="M 8.546875 -0.734375 C 8.242188 -0.453125 7.867188 -0.238281 7.421875 -0.09375 C 6.972656 0.0390625 6.503906 0.109375 6.015625 0.109375 C 4.898438 0.109375 4.035156 -0.191406 3.421875 -0.796875 C 2.816406 -1.398438 2.515625 -2.253906 2.515625 -3.359375 L 2.515625 -10.59375 L 0.390625 -10.59375 L 0.390625 -11.953125 L 2.515625 -11.953125 L 2.515625 -14.5625 L 4.140625 -14.5625 L 4.140625 -11.953125 L 7.765625 -11.953125 L 7.765625 -10.59375 L 4.140625 -10.59375 L 4.140625 -3.453125 C 4.140625 -2.742188 4.316406 -2.203125 4.671875 -1.828125 C 5.023438 -1.453125 5.535156 -1.265625 6.203125 -1.265625 C 6.535156 -1.265625 6.859375 -1.316406 7.171875 -1.421875 C 7.484375 -1.535156 7.75 -1.691406 7.96875 -1.890625 Z M 8.546875 -0.734375 "/></g></g></g><g fill="#545454" fill-opacity="1"><g transform="translate(160.169887, 182.265926)"><g><path d="M 12.65625 -5.46875 L 2.65625 -5.46875 C 2.75 -4.226562 3.226562 -3.222656 4.09375 -2.453125 C 4.957031 -1.691406 6.046875 -1.3125 7.359375 -1.3125 C 8.097656 -1.3125 8.78125 -1.441406 9.40625 -1.703125 C 10.03125 -1.972656 10.566406 -2.367188 11.015625 -2.890625 L 11.921875 -1.84375 C 11.390625 -1.207031 10.726562 -0.722656 9.9375 -0.390625 C 9.144531 -0.0546875 8.269531 0.109375 7.3125 0.109375 C 6.082031 0.109375 4.992188 -0.148438 4.046875 -0.671875 C 3.109375 -1.191406 2.375 -1.910156 1.84375 -2.828125 C 1.3125 -3.753906 1.046875 -4.800781 1.046875 -5.96875 C 1.046875 -7.132812 1.296875 -8.179688 1.796875 -9.109375 C 2.304688 -10.035156 3.003906 -10.753906 3.890625 -11.265625 C 4.773438 -11.785156 5.773438 -12.046875 6.890625 -12.046875 C 7.992188 -12.046875 8.984375 -11.785156 9.859375 -11.265625 C 10.734375 -10.753906 11.421875 -10.039062 11.921875 -9.125 C 12.421875 -8.207031 12.671875 -7.15625 12.671875 -5.96875 Z M 6.890625 -10.65625 C 5.734375 -10.65625 4.765625 -10.285156 3.984375 -9.546875 C 3.203125 -8.816406 2.757812 -7.859375 2.65625 -6.671875 L 11.125 -6.671875 C 11.019531 -7.859375 10.578125 -8.816406 9.796875 -9.546875 C 9.023438 -10.285156 8.054688 -10.65625 6.890625 -10.65625 Z M 6.890625 -10.65625 "/></g></g></g><g fill="#545454" fill-opacity="1"><g transform="translate(173.904112, 182.265926)"><g/></g></g><g fill="#545454" fill-opacity="1"><g transform="translate(195.031458, 182.265926)"><g><path d="M 6.421875 -12.046875 C 7.984375 -12.046875 9.179688 -11.65625 10.015625 -10.875 C 10.847656 -10.09375 11.265625 -8.9375 11.265625 -7.40625 L 11.265625 0 L 9.71875 0 L 9.71875 -1.859375 C 9.351562 -1.242188 8.816406 -0.757812 8.109375 -0.40625 C 7.410156 -0.0625 6.578125 0.109375 5.609375 0.109375 C 4.273438 0.109375 3.210938 -0.207031 2.421875 -0.84375 C 1.640625 -1.476562 1.25 -2.316406 1.25 -3.359375 C 1.25 -4.378906 1.613281 -5.195312 2.34375 -5.8125 C 3.082031 -6.4375 4.253906 -6.75 5.859375 -6.75 L 9.65625 -6.75 L 9.65625 -7.46875 C 9.65625 -8.5 9.363281 -9.28125 8.78125 -9.8125 C 8.207031 -10.351562 7.367188 -10.625 6.265625 -10.625 C 5.515625 -10.625 4.789062 -10.5 4.09375 -10.25 C 3.394531 -10 2.796875 -9.65625 2.296875 -9.21875 L 1.5625 -10.421875 C 2.164062 -10.941406 2.890625 -11.34375 3.734375 -11.625 C 4.585938 -11.90625 5.484375 -12.046875 6.421875 -12.046875 Z M 5.859375 -1.15625 C 6.765625 -1.15625 7.539062 -1.363281 8.1875 -1.78125 C 8.84375 -2.195312 9.332031 -2.800781 9.65625 -3.59375 L 9.65625 -5.546875 L 5.90625 -5.546875 C 3.863281 -5.546875 2.84375 -4.832031 2.84375 -3.40625 C 2.84375 -2.707031 3.109375 -2.15625 3.640625 -1.75 C 4.171875 -1.351562 4.910156 -1.15625 5.859375 -1.15625 Z M 5.859375 -1.15625 "/></g></g></g><g fill="#545454" fill-opacity="1"><g transform="translate(208.437787, 182.265926)"><g><path d="M 8.546875 -0.734375 C 8.242188 -0.453125 7.867188 -0.238281 7.421875 -0.09375 C 6.972656 0.0390625 6.503906 0.109375 6.015625 0.109375 C 4.898438 0.109375 4.035156 -0.191406 3.421875 -0.796875 C 2.816406 -1.398438 2.515625 -2.253906 2.515625 -3.359375 L 2.515625 -10.59375 L 0.390625 -10.59375 L 0.390625 -11.953125 L 2.515625 -11.953125 L 2.515625 -14.5625 L 4.140625 -14.5625 L 4.140625 -11.953125 L 7.765625 -11.953125 L 7.765625 -10.59375 L 4.140625 -10.59375 L 4.140625 -3.453125 C 4.140625 -2.742188 4.316406 -2.203125 4.671875 -1.828125 C 5.023438 -1.453125 5.535156 -1.265625 6.203125 -1.265625 C 6.535156 -1.265625 6.859375 -1.316406 7.171875 -1.421875 C 7.484375 -1.535156 7.75 -1.691406 7.96875 -1.890625 Z M 8.546875 -0.734375 "/></g></g></g><g fill="#545454" fill-opacity="1"><g transform="translate(217.663166, 182.265926)"><g><path d="M 8.34375 -12.046875 C 9.84375 -12.046875 11.035156 -11.609375 11.921875 -10.734375 C 12.804688 -9.859375 13.25 -8.585938 13.25 -6.921875 L 13.25 0 L 11.625 0 L 11.625 -6.765625 C 11.625 -8.015625 11.3125 -8.960938 10.6875 -9.609375 C 10.070312 -10.265625 9.191406 -10.59375 8.046875 -10.59375 C 6.753906 -10.59375 5.734375 -10.207031 4.984375 -9.4375 C 4.234375 -8.675781 3.859375 -7.617188 3.859375 -6.265625 L 3.859375 0 L 2.25 0 L 2.25 -16.859375 L 3.859375 -16.859375 L 3.859375 -9.859375 C 4.296875 -10.554688 4.898438 -11.09375 5.671875 -11.46875 C 6.453125 -11.851562 7.34375 -12.046875 8.34375 -12.046875 Z M 8.34375 -12.046875 "/></g></g></g><g fill="#545454" fill-opacity="1"><g transform="translate(232.819126, 182.265926)"><g><path d="M 19.78125 -11.953125 L 15.265625 0 L 13.75 0 L 9.96875 -9.796875 L 6.203125 0 L 4.6875 0 L 0.1875 -11.953125 L 1.734375 -11.953125 L 5.46875 -1.796875 L 9.3125 -11.953125 L 10.703125 -11.953125 L 14.515625 -1.796875 L 18.3125 -11.953125 Z M 19.78125 -11.953125 "/></g></g></g><g fill="#545454" fill-opacity="1"><g transform="translate(252.42869, 182.265926)"><g><path d="M 6.421875 -12.046875 C 7.984375 -12.046875 9.179688 -11.65625 10.015625 -10.875 C 10.847656 -10.09375 11.265625 -8.9375 11.265625 -7.40625 L 11.265625 0 L 9.71875 0 L 9.71875 -1.859375 C 9.351562 -1.242188 8.816406 -0.757812 8.109375 -0.40625 C 7.410156 -0.0625 6.578125 0.109375 5.609375 0.109375 C 4.273438 0.109375 3.210938 -0.207031 2.421875 -0.84375 C 1.640625 -1.476562 1.25 -2.316406 1.25 -3.359375 C 1.25 -4.378906 1.613281 -5.195312 2.34375 -5.8125 C 3.082031 -6.4375 4.253906 -6.75 5.859375 -6.75 L 9.65625 -6.75 L 9.65625 -7.46875 C 9.65625 -8.5 9.363281 -9.28125 8.78125 -9.8125 C 8.207031 -10.351562 7.367188 -10.625 6.265625 -10.625 C 5.515625 -10.625 4.789062 -10.5 4.09375 -10.25 C 3.394531 -10 2.796875 -9.65625 2.296875 -9.21875 L 1.5625 -10.421875 C 2.164062 -10.941406 2.890625 -11.34375 3.734375 -11.625 C 4.585938 -11.90625 5.484375 -12.046875 6.421875 -12.046875 Z M 5.859375 -1.15625 C 6.765625 -1.15625 7.539062 -1.363281 8.1875 -1.78125 C 8.84375 -2.195312 9.332031 -2.800781 9.65625 -3.59375 L 9.65625 -5.546875 L 5.90625 -5.546875 C 3.863281 -5.546875 2.84375 -4.832031 2.84375 -3.40625 C 2.84375 -2.707031 3.109375 -2.15625 3.640625 -1.75 C 4.171875 -1.351562 4.910156 -1.15625 5.859375 -1.15625 Z M 5.859375 -1.15625 "/></g></g></g><g fill="#545454" fill-opacity="1"><g transform="translate(265.607774, 182.265926)"><g><path d="M 12.296875 -11.953125 L 6.3125 1.4375 C 5.832031 2.550781 5.273438 3.34375 4.640625 3.8125 C 4.003906 4.28125 3.238281 4.515625 2.34375 4.515625 C 1.769531 4.515625 1.234375 4.421875 0.734375 4.234375 C 0.234375 4.054688 -0.195312 3.789062 -0.5625 3.4375 L 0.1875 2.21875 C 0.789062 2.832031 1.515625 3.140625 2.359375 3.140625 C 2.910156 3.140625 3.378906 2.984375 3.765625 2.671875 C 4.148438 2.367188 4.507812 1.859375 4.84375 1.140625 L 5.359375 -0.015625 L 0.015625 -11.953125 L 1.703125 -11.953125 L 6.203125 -1.796875 L 10.703125 -11.953125 Z M 12.296875 -11.953125 "/></g></g></g><g fill="#545454" fill-opacity="1"><g transform="translate(277.787079, 182.265926)"><g><path d="M 5.453125 0.109375 C 4.484375 0.109375 3.554688 -0.03125 2.671875 -0.3125 C 1.785156 -0.59375 1.09375 -0.941406 0.59375 -1.359375 L 1.3125 -2.640625 C 1.8125 -2.242188 2.441406 -1.921875 3.203125 -1.671875 C 3.960938 -1.421875 4.75 -1.296875 5.5625 -1.296875 C 6.65625 -1.296875 7.460938 -1.460938 7.984375 -1.796875 C 8.503906 -2.140625 8.765625 -2.625 8.765625 -3.25 C 8.765625 -3.6875 8.617188 -4.03125 8.328125 -4.28125 C 8.046875 -4.53125 7.6875 -4.71875 7.25 -4.84375 C 6.8125 -4.976562 6.226562 -5.101562 5.5 -5.21875 C 4.53125 -5.40625 3.75 -5.59375 3.15625 -5.78125 C 2.5625 -5.96875 2.054688 -6.285156 1.640625 -6.734375 C 1.222656 -7.191406 1.015625 -7.828125 1.015625 -8.640625 C 1.015625 -9.628906 1.429688 -10.441406 2.265625 -11.078125 C 3.097656 -11.722656 4.257812 -12.046875 5.75 -12.046875 C 6.519531 -12.046875 7.289062 -11.941406 8.0625 -11.734375 C 8.832031 -11.523438 9.46875 -11.253906 9.96875 -10.921875 L 9.265625 -9.625 C 8.285156 -10.3125 7.113281 -10.65625 5.75 -10.65625 C 4.71875 -10.65625 3.941406 -10.472656 3.421875 -10.109375 C 2.898438 -9.742188 2.640625 -9.265625 2.640625 -8.671875 C 2.640625 -8.222656 2.785156 -7.859375 3.078125 -7.578125 C 3.367188 -7.304688 3.734375 -7.109375 4.171875 -6.984375 C 4.617188 -6.859375 5.226562 -6.726562 6 -6.59375 C 6.945312 -6.40625 7.707031 -6.21875 8.28125 -6.03125 C 8.863281 -5.851562 9.359375 -5.546875 9.765625 -5.109375 C 10.171875 -4.671875 10.375 -4.066406 10.375 -3.296875 C 10.375 -2.253906 9.9375 -1.425781 9.0625 -0.8125 C 8.195312 -0.195312 6.992188 0.109375 5.453125 0.109375 Z M 5.453125 0.109375 "/></g></g></g><g clip-path="url(#0a3202b236)"><path fill="#687b0a" d="M 178.492188 190.359375 C 178.492188 192.429688 176.808594 194.113281 174.734375 194.113281 C 172.664062 194.113281 170.980469 192.429688 170.980469 190.359375 C 170.980469 188.285156 172.664062 186.601562 174.734375 186.601562 L 178.492188 186.601562 Z M 185.753906 167.734375 C 181.722656 167.757812 178.492188 171.089844 178.492188 175.121094 L 178.492188 183.050781 L 174.824219 183.050781 C 170.757812 183.050781 167.40625 186.335938 167.429688 190.402344 C 167.453125 194.394531 170.699219 197.640625 174.691406 197.664062 C 178.757812 197.6875 182.042969 194.335938 182.042969 190.269531 L 182.042969 175.097656 C 182.042969 173.039062 183.679688 171.316406 185.738281 171.285156 C 187.835938 171.253906 189.554688 172.953125 189.554688 175.042969 C 189.554688 176.988281 188.066406 178.59375 186.167969 178.78125 C 185.960938 178.800781 185.796875 178.972656 185.796875 179.183594 L 185.796875 181.929688 C 185.796875 182.164062 185.996094 182.351562 186.230469 182.335938 C 190.058594 182.113281 193.105469 178.925781 193.105469 175.042969 C 193.105469 171 189.804688 167.710938 185.753906 167.734375 " fill-opacity="1" fill-rule="nonzero"/></g></svg>