<svg xmlns="http://www.w3.org/2000/svg" xmlns:xlink="http://www.w3.org/1999/xlink" zoomAndPan="magnify" preserveAspectRatio="xMidYMid meet" version="1.0" viewBox="324.49 710.37 851.47 78.91"><defs><g/><clipPath id="09f433ed91"><path d="M 688.417969 737.078125 L 747.667969 737.078125 L 747.667969 762.578125 L 688.417969 762.578125 Z M 688.417969 737.078125 " clip-rule="nonzero"/></clipPath></defs><g clip-path="url(#09f433ed91)"><path stroke-linecap="round" transform="matrix(0.0656146, 0, 0, 0.0647132, 685.235902, 717.471182)" fill="none" stroke-linejoin="round" d="M 560.779801 447.972624 C 642.042667 374.87368 738.010243 283.48491 849.45646 361.654301 C 1030.913761 488.838012 841.538539 764.090849 658.533373 633.466476 C 552.326081 557.711584 454.274843 451.896184 348.781949 372.760994 C 153.92967 226.502743 -36.576684 518.17417 159.347194 643.426283 C 269.543213 713.808916 360.450463 619.160572 440.522665 551.675338 " stroke="#373638" stroke-width="57.130001" stroke-opacity="1" stroke-miterlimit="4"/></g><g fill="#000000" fill-opacity="1"><g transform="translate(320.972115, 772.874913)"><g><path d="M 3.515625 -2.109375 C 5.015625 -2.148438 6.082031 -2.488281 6.71875 -3.125 C 7.363281 -3.769531 7.726562 -4.53125 7.8125 -5.40625 C 7.894531 -6.28125 7.9375 -7.804688 7.9375 -9.984375 L 7.9375 -37.625 C 7.9375 -39.414062 8 -40.953125 8.125 -42.234375 L 3.515625 -41.984375 L 3.515625 -44.796875 L 17.921875 -44.796875 L 17.921875 -42.6875 C 16.429688 -42.644531 15.363281 -42.300781 14.71875 -41.65625 C 14.082031 -41.019531 13.71875 -40.265625 13.625 -39.390625 C 13.539062 -38.515625 13.5 -36.988281 13.5 -34.8125 L 13.5 -7.609375 C 13.5 -5.347656 13.4375 -3.664062 13.3125 -2.5625 L 17.921875 -2.8125 L 17.921875 0 L 3.515625 0 Z M 3.515625 -2.109375 "/></g></g></g><g fill="#000000" fill-opacity="1"><g transform="translate(351.178793, 772.874913)"><g><path d="M 10.75 -36.28125 L 10.6875 -36.28125 L 10.875 -8.890625 C 10.875 -6.035156 10.832031 -3.925781 10.75 -2.5625 L 15.359375 -2.8125 L 15.359375 0 L 3.640625 0 L 3.640625 -2.109375 C 5.347656 -2.109375 6.476562 -2.597656 7.03125 -3.578125 C 7.59375 -4.566406 7.875 -5.765625 7.875 -7.171875 L 7.9375 -42.234375 L 3.640625 -41.984375 L 3.640625 -44.796875 L 11.265625 -44.796875 L 38.53125 -8.3125 L 38.59375 -8.3125 L 38.65625 -37.625 C 38.65625 -39.414062 38.71875 -40.953125 38.84375 -42.234375 L 34.234375 -41.984375 L 34.234375 -44.796875 L 46.015625 -44.796875 L 46.015625 -42.6875 C 44.734375 -42.644531 43.78125 -42.398438 43.15625 -41.953125 C 42.539062 -41.503906 42.148438 -40.894531 41.984375 -40.125 C 41.816406 -39.351562 41.734375 -38.332031 41.734375 -37.0625 L 41.734375 -34.8125 L 41.59375 1.03125 L 38.53125 1.03125 Z M 10.75 -36.28125 "/></g></g></g><g fill="#000000" fill-opacity="1"><g transform="translate(408.711797, 772.874913)"><g><path d="M 3.515625 -2.109375 C 5.015625 -2.148438 6.082031 -2.488281 6.71875 -3.125 C 7.363281 -3.769531 7.726562 -4.53125 7.8125 -5.40625 C 7.894531 -6.28125 7.9375 -7.804688 7.9375 -9.984375 L 7.9375 -37.625 C 7.9375 -39.414062 8 -40.953125 8.125 -42.234375 L 3.515625 -41.984375 L 3.515625 -44.796875 L 33.21875 -44.796875 L 33.53125 -33.59375 L 31.421875 -33.59375 C 31.421875 -37.09375 30.628906 -39.484375 29.046875 -40.765625 C 27.472656 -42.046875 25.320312 -42.644531 22.59375 -42.5625 L 17.921875 -42.4375 C 16.429688 -42.394531 15.375 -42.050781 14.75 -41.40625 C 14.132812 -40.769531 13.769531 -39.992188 13.65625 -39.078125 C 13.550781 -38.160156 13.5 -36.65625 13.5 -34.5625 L 13.5 -23.546875 L 24.640625 -23.484375 L 24.1875 -29.0625 L 27.015625 -29.0625 L 27.015625 -15.546875 L 24.953125 -15.546875 C 24.953125 -17.171875 24.769531 -18.390625 24.40625 -19.203125 C 24.050781 -20.015625 23.488281 -20.566406 22.71875 -20.859375 C 21.945312 -21.160156 20.878906 -21.3125 19.515625 -21.3125 C 18.578125 -21.3125 17.851562 -21.289062 17.34375 -21.25 L 13.5 -21.0625 L 13.5 -7.609375 C 13.5 -5.347656 13.4375 -3.664062 13.3125 -2.5625 L 19.84375 -2.8125 L 19.84375 0 L 3.515625 0 Z M 3.515625 -2.109375 "/></g></g></g><g fill="#000000" fill-opacity="1"><g transform="translate(452.549634, 772.874913)"><g><path d="M 3.515625 -2.109375 C 5.015625 -2.148438 6.082031 -2.488281 6.71875 -3.125 C 7.363281 -3.769531 7.726562 -4.53125 7.8125 -5.40625 C 7.894531 -6.28125 7.9375 -7.804688 7.9375 -9.984375 L 7.9375 -37.625 C 7.9375 -39.414062 8 -40.953125 8.125 -42.234375 L 3.515625 -41.984375 L 3.515625 -44.796875 L 17.921875 -44.796875 L 17.921875 -42.6875 C 16.429688 -42.644531 15.363281 -42.300781 14.71875 -41.65625 C 14.082031 -41.019531 13.71875 -40.265625 13.625 -39.390625 C 13.539062 -38.515625 13.5 -36.988281 13.5 -34.8125 L 13.5 -7.609375 C 13.5 -5.347656 13.4375 -3.664062 13.3125 -2.5625 L 17.921875 -2.8125 L 17.921875 0 L 3.515625 0 Z M 3.515625 -2.109375 "/></g></g></g><g fill="#000000" fill-opacity="1"><g transform="translate(482.756312, 772.874913)"><g><path d="M 10.75 -36.28125 L 10.6875 -36.28125 L 10.875 -8.890625 C 10.875 -6.035156 10.832031 -3.925781 10.75 -2.5625 L 15.359375 -2.8125 L 15.359375 0 L 3.640625 0 L 3.640625 -2.109375 C 5.347656 -2.109375 6.476562 -2.597656 7.03125 -3.578125 C 7.59375 -4.566406 7.875 -5.765625 7.875 -7.171875 L 7.9375 -42.234375 L 3.640625 -41.984375 L 3.640625 -44.796875 L 11.265625 -44.796875 L 38.53125 -8.3125 L 38.59375 -8.3125 L 38.65625 -37.625 C 38.65625 -39.414062 38.71875 -40.953125 38.84375 -42.234375 L 34.234375 -41.984375 L 34.234375 -44.796875 L 46.015625 -44.796875 L 46.015625 -42.6875 C 44.734375 -42.644531 43.78125 -42.398438 43.15625 -41.953125 C 42.539062 -41.503906 42.148438 -40.894531 41.984375 -40.125 C 41.816406 -39.351562 41.734375 -38.332031 41.734375 -37.0625 L 41.734375 -34.8125 L 41.59375 1.03125 L 38.53125 1.03125 Z M 10.75 -36.28125 "/></g></g></g><g fill="#000000" fill-opacity="1"><g transform="translate(540.289327, 772.874913)"><g><path d="M 3.515625 -2.109375 C 5.015625 -2.148438 6.082031 -2.488281 6.71875 -3.125 C 7.363281 -3.769531 7.726562 -4.53125 7.8125 -5.40625 C 7.894531 -6.28125 7.9375 -7.804688 7.9375 -9.984375 L 7.9375 -37.625 C 7.9375 -39.414062 8 -40.953125 8.125 -42.234375 L 3.515625 -41.984375 L 3.515625 -44.796875 L 17.921875 -44.796875 L 17.921875 -42.6875 C 16.429688 -42.644531 15.363281 -42.300781 14.71875 -41.65625 C 14.082031 -41.019531 13.71875 -40.265625 13.625 -39.390625 C 13.539062 -38.515625 13.5 -36.988281 13.5 -34.8125 L 13.5 -7.609375 C 13.5 -5.347656 13.4375 -3.664062 13.3125 -2.5625 L 17.921875 -2.8125 L 17.921875 0 L 3.515625 0 Z M 3.515625 -2.109375 "/></g></g></g><g fill="#000000" fill-opacity="1"><g transform="translate(570.496005, 772.874913)"><g><path d="M 13.3125 -2.109375 C 15.144531 -2.191406 16.328125 -2.703125 16.859375 -3.640625 C 17.390625 -4.585938 17.65625 -6.039062 17.65625 -8 L 17.65625 -9.984375 L 17.734375 -42.4375 L 11.140625 -42.375 C 8.492188 -42.375 6.601562 -41.488281 5.46875 -39.71875 C 4.34375 -37.945312 3.78125 -35.140625 3.78125 -31.296875 L 1.40625 -31.296875 L 1.796875 -44.796875 L 39.109375 -44.796875 L 39.484375 -31.296875 L 37.0625 -31.296875 C 37.007812 -33.984375 36.738281 -36.125 36.25 -37.71875 C 35.757812 -39.320312 34.925781 -40.519531 33.75 -41.3125 C 32.582031 -42.101562 30.910156 -42.5 28.734375 -42.5 L 23.296875 -42.5 L 23.234375 -7.609375 C 23.234375 -5.347656 23.171875 -3.664062 23.046875 -2.5625 L 28.359375 -2.8125 L 28.359375 0 L 13.3125 0 Z M 13.3125 -2.109375 "/></g></g></g><g fill="#000000" fill-opacity="1"><g transform="translate(620.221472, 772.874913)"><g><path d="M 3.515625 -2.109375 C 5.015625 -2.148438 6.082031 -2.488281 6.71875 -3.125 C 7.363281 -3.769531 7.726562 -4.53125 7.8125 -5.40625 C 7.894531 -6.28125 7.9375 -7.804688 7.9375 -9.984375 L 7.9375 -37.625 C 7.9375 -39.414062 8 -40.953125 8.125 -42.234375 L 3.515625 -41.984375 L 3.515625 -44.796875 L 34.296875 -44.796875 L 34.625 -33.59375 L 32.515625 -33.59375 C 32.515625 -37.09375 31.753906 -39.484375 30.234375 -40.765625 C 28.722656 -42.046875 26.601562 -42.644531 23.875 -42.5625 L 18.375 -42.4375 C 16.832031 -42.394531 15.71875 -42.101562 15.03125 -41.5625 C 14.351562 -41.03125 13.925781 -40.285156 13.75 -39.328125 C 13.582031 -38.367188 13.5 -36.863281 13.5 -34.8125 L 13.5 -24.578125 L 25.53125 -24.515625 L 25.09375 -30.015625 L 27.90625 -30.015625 L 27.90625 -16.578125 L 25.796875 -16.578125 C 25.796875 -18.148438 25.601562 -19.351562 25.21875 -20.1875 C 24.832031 -21.019531 24.242188 -21.570312 23.453125 -21.84375 C 22.660156 -22.125 21.5625 -22.265625 20.15625 -22.265625 L 18.171875 -22.203125 L 13.5 -22.015625 L 13.5 -7.359375 C 13.5 -5.140625 13.4375 -3.476562 13.3125 -2.375 L 25.53125 -2.5625 C 28.519531 -2.601562 30.800781 -3.359375 32.375 -4.828125 C 33.957031 -6.304688 34.75 -8.859375 34.75 -12.484375 L 36.921875 -12.484375 L 36.546875 0 L 3.515625 0 Z M 3.515625 -2.109375 "/></g></g></g><g fill="#000000" fill-opacity="1"><g transform="translate(775.790655, 772.874913)"><g><path d="M 3.515625 -2.109375 C 5.015625 -2.148438 6.082031 -2.488281 6.71875 -3.125 C 7.363281 -3.769531 7.726562 -4.53125 7.8125 -5.40625 C 7.894531 -6.28125 7.9375 -7.804688 7.9375 -9.984375 L 7.9375 -37.625 C 7.9375 -39.414062 8 -40.953125 8.125 -42.234375 L 3.515625 -41.984375 L 3.515625 -44.796875 C 9.492188 -44.878906 14.253906 -44.921875 17.796875 -44.921875 C 24.148438 -44.921875 28.957031 -43.8125 32.21875 -41.59375 C 35.488281 -39.375 37.125 -36.113281 37.125 -31.8125 C 37.125 -29.332031 36.472656 -26.960938 35.171875 -24.703125 C 33.867188 -22.441406 31.628906 -20.5625 28.453125 -19.0625 C 25.273438 -17.570312 21.0625 -16.828125 15.8125 -16.828125 C 14.832031 -16.828125 14.0625 -16.847656 13.5 -16.890625 L 13.5 -7.609375 C 13.5 -5.347656 13.4375 -3.664062 13.3125 -2.5625 L 19.203125 -2.875 L 19.203125 0 L 3.515625 0 Z M 17.65625 -19.328125 C 20.09375 -19.328125 22.320312 -19.804688 24.34375 -20.765625 C 26.375 -21.722656 27.972656 -23.109375 29.140625 -24.921875 C 30.316406 -26.734375 30.90625 -28.859375 30.90625 -31.296875 C 30.90625 -35.140625 29.734375 -37.957031 27.390625 -39.75 C 25.046875 -41.539062 21.800781 -42.4375 17.65625 -42.4375 C 16.207031 -42.4375 15.195312 -42.132812 14.625 -41.53125 C 14.050781 -40.9375 13.71875 -40.222656 13.625 -39.390625 C 13.539062 -38.554688 13.5 -37.03125 13.5 -34.8125 L 13.5 -19.515625 C 14.570312 -19.390625 15.957031 -19.328125 17.65625 -19.328125 Z M 17.65625 -19.328125 "/></g></g></g><g fill="#000000" fill-opacity="1"><g transform="translate(821.164358, 772.874913)"><g><path d="M -0.390625 -2.109375 C 0.679688 -2.109375 1.535156 -2.351562 2.171875 -2.84375 C 2.816406 -3.332031 3.34375 -3.972656 3.75 -4.765625 C 4.15625 -5.554688 4.632812 -6.738281 5.1875 -8.3125 L 5.828125 -10.109375 L 19.015625 -46.015625 L 20.546875 -46.015625 L 34.8125 -9.59375 C 35.28125 -8.445312 35.6875 -7.203125 36.03125 -5.859375 C 36.375 -4.515625 36.523438 -3.414062 36.484375 -2.5625 L 40.828125 -2.8125 L 40.828125 0 L 26.171875 0 L 26.171875 -2.109375 C 28.691406 -2.148438 29.953125 -3.175781 29.953125 -5.1875 C 29.953125 -6 29.738281 -7 29.3125 -8.1875 L 27.078125 -14.203125 L 10.4375 -13.828125 C 9.789062 -12.078125 9.039062 -9.789062 8.1875 -6.96875 C 7.757812 -5.5625 7.226562 -4.09375 6.59375 -2.5625 L 11.578125 -2.8125 L 11.578125 0 L -0.390625 0 Z M 26.171875 -16.578125 L 21.625 -28.796875 L 18.75 -36.671875 L 18.625 -36.671875 L 15.9375 -29.4375 L 12.484375 -19.71875 L 11.390625 -16.578125 Z M 26.171875 -16.578125 "/></g></g></g><g fill="#000000" fill-opacity="1"><g transform="translate(868.457956, 772.874913)"><g><path d="M 13.3125 -2.109375 C 15.144531 -2.191406 16.328125 -2.703125 16.859375 -3.640625 C 17.390625 -4.585938 17.65625 -6.039062 17.65625 -8 L 17.65625 -9.984375 L 17.734375 -42.4375 L 11.140625 -42.375 C 8.492188 -42.375 6.601562 -41.488281 5.46875 -39.71875 C 4.34375 -37.945312 3.78125 -35.140625 3.78125 -31.296875 L 1.40625 -31.296875 L 1.796875 -44.796875 L 39.109375 -44.796875 L 39.484375 -31.296875 L 37.0625 -31.296875 C 37.007812 -33.984375 36.738281 -36.125 36.25 -37.71875 C 35.757812 -39.320312 34.925781 -40.519531 33.75 -41.3125 C 32.582031 -42.101562 30.910156 -42.5 28.734375 -42.5 L 23.296875 -42.5 L 23.234375 -7.609375 C 23.234375 -5.347656 23.171875 -3.664062 23.046875 -2.5625 L 28.359375 -2.8125 L 28.359375 0 L 13.3125 0 Z M 13.3125 -2.109375 "/></g></g></g><g fill="#000000" fill-opacity="1"><g transform="translate(918.183434, 772.874913)"><g><path d="M 3.515625 -2.109375 C 5.015625 -2.148438 6.082031 -2.488281 6.71875 -3.125 C 7.363281 -3.769531 7.726562 -4.53125 7.8125 -5.40625 C 7.894531 -6.28125 7.9375 -7.804688 7.9375 -9.984375 L 7.9375 -37.625 C 7.9375 -39.414062 8 -40.953125 8.125 -42.234375 L 3.515625 -41.984375 L 3.515625 -44.796875 L 17.921875 -44.796875 L 17.921875 -42.6875 C 16.429688 -42.644531 15.363281 -42.300781 14.71875 -41.65625 C 14.082031 -41.019531 13.71875 -40.265625 13.625 -39.390625 C 13.539062 -38.515625 13.5 -36.988281 13.5 -34.8125 L 13.5 -24.1875 L 36.421875 -24.1875 L 36.421875 -37.625 C 36.421875 -39.414062 36.484375 -40.953125 36.609375 -42.234375 L 32 -41.984375 L 32 -44.796875 L 46.40625 -44.796875 L 46.40625 -42.6875 C 44.90625 -42.644531 43.832031 -42.300781 43.1875 -41.65625 C 42.550781 -41.019531 42.191406 -40.265625 42.109375 -39.390625 C 42.023438 -38.515625 41.984375 -36.988281 41.984375 -34.8125 L 41.984375 -7.609375 C 41.984375 -5.347656 41.921875 -3.664062 41.796875 -2.5625 L 46.40625 -2.8125 L 46.40625 0 L 32 0 L 32 -2.109375 C 33.488281 -2.148438 34.550781 -2.488281 35.1875 -3.125 C 35.832031 -3.769531 36.195312 -4.53125 36.28125 -5.40625 C 36.375 -6.28125 36.421875 -7.804688 36.421875 -9.984375 L 36.421875 -21.625 L 13.5 -21.375 L 13.5 -7.609375 C 13.5 -5.347656 13.4375 -3.664062 13.3125 -2.5625 L 17.921875 -2.8125 L 17.921875 0 L 3.515625 0 Z M 3.515625 -2.109375 "/></g></g></g><g fill="#000000" fill-opacity="1"><g transform="translate(976.868366, 772.874913)"><g><path d="M 6.71875 -33.40625 L 5.890625 -35.90625 C 4.867188 -39.101562 4.25 -41.171875 4.03125 -42.109375 L 0.453125 -41.984375 L 0.453125 -44.796875 L 16 -44.796875 L 16 -42.6875 C 14.25 -42.601562 13.007812 -42.316406 12.28125 -41.828125 C 11.5625 -41.335938 11.203125 -40.535156 11.203125 -39.421875 C 11.203125 -38.398438 11.414062 -37.164062 11.84375 -35.71875 C 12.601562 -32.851562 13.625 -29.648438 14.90625 -26.109375 C 15.125 -25.472656 15.378906 -24.71875 15.671875 -23.84375 C 15.972656 -22.96875 16.316406 -21.953125 16.703125 -20.796875 C 16.960938 -19.898438 17.28125 -18.914062 17.65625 -17.84375 C 18.039062 -16.78125 18.320312 -16.015625 18.5 -15.546875 C 19.351562 -13.242188 19.992188 -11.410156 20.421875 -10.046875 L 20.546875 -10.046875 C 21.398438 -12.953125 22.273438 -15.769531 23.171875 -18.5 C 24.703125 -23.445312 26.382812 -28.671875 28.21875 -34.171875 C 30.144531 -39.929688 31.300781 -43.515625 31.6875 -44.921875 L 33.734375 -44.921875 C 34.242188 -43.171875 35.113281 -40.429688 36.34375 -36.703125 C 37.582031 -32.972656 38.484375 -30.273438 39.046875 -28.609375 C 40.316406 -24.941406 41.1875 -22.335938 41.65625 -20.796875 C 42 -19.648438 42.554688 -17.921875 43.328125 -15.609375 C 44.179688 -13.140625 44.863281 -11.03125 45.375 -9.28125 L 45.5625 -9.28125 C 46.59375 -12.601562 47.46875 -15.351562 48.1875 -17.53125 C 50.363281 -23.71875 52.132812 -29.050781 53.5 -33.53125 C 53.96875 -35.113281 54.394531 -36.4375 54.78125 -37.5 C 55.59375 -39.675781 56.253906 -41.234375 56.765625 -42.171875 L 51.640625 -41.984375 L 51.640625 -44.796875 L 64.640625 -44.796875 L 64.640625 -42.6875 C 63.097656 -42.519531 61.929688 -42.203125 61.140625 -41.734375 C 60.359375 -41.265625 59.65625 -40.421875 59.03125 -39.203125 C 58.414062 -37.984375 57.640625 -35.988281 56.703125 -33.21875 L 53.4375 -23.484375 C 50.019531 -13.117188 47.269531 -5.078125 45.1875 0.640625 L 43.265625 0.640625 L 31.296875 -33.59375 L 20.03125 0.640625 L 18.171875 0.640625 Z M 6.71875 -33.40625 "/></g></g></g><g fill="#000000" fill-opacity="1"><g transform="translate(1046.496548, 772.874913)"><g><path d="M -0.390625 -2.109375 C 0.679688 -2.109375 1.535156 -2.351562 2.171875 -2.84375 C 2.816406 -3.332031 3.34375 -3.972656 3.75 -4.765625 C 4.15625 -5.554688 4.632812 -6.738281 5.1875 -8.3125 L 5.828125 -10.109375 L 19.015625 -46.015625 L 20.546875 -46.015625 L 34.8125 -9.59375 C 35.28125 -8.445312 35.6875 -7.203125 36.03125 -5.859375 C 36.375 -4.515625 36.523438 -3.414062 36.484375 -2.5625 L 40.828125 -2.8125 L 40.828125 0 L 26.171875 0 L 26.171875 -2.109375 C 28.691406 -2.148438 29.953125 -3.175781 29.953125 -5.1875 C 29.953125 -6 29.738281 -7 29.3125 -8.1875 L 27.078125 -14.203125 L 10.4375 -13.828125 C 9.789062 -12.078125 9.039062 -9.789062 8.1875 -6.96875 C 7.757812 -5.5625 7.226562 -4.09375 6.59375 -2.5625 L 11.578125 -2.8125 L 11.578125 0 L -0.390625 0 Z M 26.171875 -16.578125 L 21.625 -28.796875 L 18.75 -36.671875 L 18.625 -36.671875 L 15.9375 -29.4375 L 12.484375 -19.71875 L 11.390625 -16.578125 Z M 26.171875 -16.578125 "/></g></g></g><g fill="#000000" fill-opacity="1"><g transform="translate(1093.15017, 772.874913)"><g><path d="M 13.765625 -2.109375 C 15.597656 -2.191406 16.78125 -2.703125 17.3125 -3.640625 C 17.84375 -4.585938 18.109375 -6.039062 18.109375 -8 L 18.109375 -9.984375 L 18.171875 -17.28125 L 7.046875 -34.875 C 5.078125 -37.90625 3.921875 -40.316406 3.578125 -42.109375 L -0.390625 -41.984375 L -0.390625 -44.796875 L 16.125 -44.796875 L 16.125 -42.6875 C 12.800781 -42.6875 11.140625 -41.75 11.140625 -39.875 C 11.140625 -38.757812 11.671875 -37.375 12.734375 -35.71875 L 14.71875 -32.578125 C 17.445312 -28.140625 19.816406 -24.535156 21.828125 -21.765625 L 21.953125 -21.765625 C 23.441406 -24.703125 25.722656 -29.050781 28.796875 -34.8125 L 30.140625 -37.3125 C 31.378906 -39.65625 32.40625 -41.273438 33.21875 -42.171875 L 28.15625 -41.984375 L 28.15625 -44.796875 L 41.21875 -44.796875 L 41.21875 -42.6875 C 39.207031 -42.5625 37.53125 -41.878906 36.1875 -40.640625 C 34.84375 -39.398438 33.382812 -37.332031 31.8125 -34.4375 L 23.75 -19.203125 C 23.707031 -17.109375 23.671875 -14.890625 23.640625 -12.546875 C 23.617188 -10.203125 23.632812 -8.554688 23.6875 -7.609375 C 23.6875 -5.347656 23.617188 -3.664062 23.484375 -2.5625 L 28.796875 -2.8125 L 28.796875 0 L 13.765625 0 Z M 13.765625 -2.109375 "/></g></g></g><g fill="#000000" fill-opacity="1"><g transform="translate(1142.491688, 772.874913)"><g><path d="M 18.5 1.03125 C 16.488281 1.03125 14.46875 0.75 12.4375 0.1875 C 10.414062 -0.363281 8.640625 -1.171875 7.109375 -2.234375 L 7.421875 0.515625 L 4.09375 0.515625 L 3.71875 -13.125 L 6.203125 -13.125 C 6.421875 -9.445312 7.679688 -6.613281 9.984375 -4.625 C 12.285156 -2.644531 15.207031 -1.65625 18.75 -1.65625 C 21.351562 -1.65625 23.539062 -2.367188 25.3125 -3.796875 C 27.082031 -5.234375 27.96875 -7.1875 27.96875 -9.65625 C 27.96875 -11.5 27.460938 -13.066406 26.453125 -14.359375 C 25.453125 -15.660156 24.21875 -16.75 22.75 -17.625 C 21.28125 -18.5 19.285156 -19.515625 16.765625 -20.671875 C 13.910156 -22.035156 11.640625 -23.226562 9.953125 -24.25 C 8.265625 -25.28125 6.820312 -26.632812 5.625 -28.3125 C 4.4375 -30 3.84375 -32.082031 3.84375 -34.5625 C 3.84375 -36.269531 4.234375 -37.972656 5.015625 -39.671875 C 5.804688 -41.378906 7.171875 -42.832031 9.109375 -44.03125 C 11.054688 -45.226562 13.628906 -45.828125 16.828125 -45.828125 C 18.753906 -45.828125 20.6875 -45.582031 22.625 -45.09375 C 24.5625 -44.601562 26.34375 -43.757812 27.96875 -42.5625 L 27.71875 -45.3125 L 30.96875 -45.3125 L 30.96875 -31.234375 L 28.671875 -31.234375 C 28.460938 -34.597656 27.382812 -37.441406 25.4375 -39.765625 C 23.5 -42.097656 20.78125 -43.265625 17.28125 -43.265625 C 14.71875 -43.265625 12.710938 -42.546875 11.265625 -41.109375 C 9.816406 -39.679688 9.09375 -37.90625 9.09375 -35.78125 C 9.09375 -34.070312 9.582031 -32.597656 10.5625 -31.359375 C 11.539062 -30.117188 12.734375 -29.09375 14.140625 -28.28125 C 15.546875 -27.476562 17.53125 -26.476562 20.09375 -25.28125 C 23 -23.957031 25.335938 -22.757812 27.109375 -21.6875 C 28.878906 -20.625 30.378906 -19.226562 31.609375 -17.5 C 32.847656 -15.769531 33.46875 -13.648438 33.46875 -11.140625 C 33.46875 -8.742188 32.878906 -6.628906 31.703125 -4.796875 C 30.535156 -2.960938 28.820312 -1.53125 26.5625 -0.5 C 24.300781 0.519531 21.613281 1.03125 18.5 1.03125 Z M 18.5 1.03125 "/></g></g></g></svg>