<svg width="326" height="55" viewBox="0 0 326 55" fill="none" xmlns="http://www.w3.org/2000/svg">
<mask id="mask0_2001_3" style="mask-type:luminance" maskUnits="userSpaceOnUse" x="0" y="0" width="326" height="55">
<path d="M325.333 0H0V54.6667H325.333V0Z" fill="white"/>
</mask>
<g mask="url(#mask0_2001_3)">
<path d="M39.4785 6.84497V14.1575H10.2285V21.47H32.166C33.4993 21.47 34.7181 21.7981 35.8327 22.4491C36.9577 23.1054 37.8431 23.9856 38.4993 25.095C39.1504 26.2096 39.4785 27.4387 39.4785 28.7825V36.095C39.4785 37.4283 39.1504 38.6575 38.4993 39.7825C37.8431 40.8971 36.9577 41.7773 35.8327 42.4283C34.7181 43.0846 33.4993 43.4075 32.166 43.4075H2.91599V36.095H32.166V28.7825H10.2285C8.87953 28.7825 7.65036 28.4596 6.54099 27.8033C5.4264 27.1523 4.54619 26.2721 3.89515 25.1575C3.2389 24.0325 2.91599 22.8033 2.91599 21.47V14.1575C2.91599 12.8137 3.2389 11.5846 3.89515 10.47C4.54619 9.3606 5.4264 8.48039 6.54099 7.82414C7.65036 7.1731 8.87953 6.84497 10.2285 6.84497H39.4785Z" fill="black"/>
<path d="M79.7042 6.84497V14.1575H72.3917L61.4126 25.1158L72.3917 36.095H79.7042V43.4075H70.9334C69.8917 43.4075 69.0011 43.0429 68.2667 42.3033L54.7459 28.7825H50.4542V43.4075H43.1417V6.84497H50.4542V21.47H54.7459L68.2667 7.9283C69.0011 7.20955 69.8917 6.84497 70.9334 6.84497H79.7042Z" fill="black"/>
<path d="M119.93 6.84497V14.1575H90.68V21.47H119.93V28.7825H90.68V36.095H119.93V43.4075H90.68C89.331 43.4075 88.1018 43.0846 86.9925 42.4283C85.8779 41.7773 84.9977 40.8971 84.3466 39.7825C83.6904 38.6575 83.3675 37.4283 83.3675 36.095V14.1575C83.3675 12.8137 83.6904 11.5846 84.3466 10.47C84.9977 9.3606 85.8779 8.48039 86.9925 7.82414C88.1018 7.1731 89.331 6.84497 90.68 6.84497H119.93Z" fill="black"/>
<path d="M160.156 43.4075H130.906C129.557 43.4075 128.328 43.0846 127.218 42.4283C126.104 41.7773 125.223 40.8971 124.572 39.7825C123.916 38.6575 123.593 37.4283 123.593 36.095V6.84497H130.906V36.095H160.156V43.4075Z" fill="black"/>
<path d="M200.381 6.84497V14.1575H171.131V21.47H200.381V28.7825H171.131V36.095H200.381V43.4075H171.131C169.782 43.4075 168.553 43.0846 167.444 42.4283C166.329 41.7773 165.449 40.8971 164.798 39.7825C164.142 38.6575 163.819 37.4283 163.819 36.095V14.1575C163.819 12.8137 164.142 11.5846 164.798 10.47C165.449 9.3606 166.329 8.48039 167.444 7.82414C168.553 7.1731 169.782 6.84497 171.131 6.84497H200.381Z" fill="black"/>
<path d="M240.607 6.84497V14.1575H225.982V43.4075H218.67V14.1575H204.045V6.84497H240.607Z" fill="black"/>
<path d="M280.833 43.4075H244.27V36.095H258.895V14.1575H244.27V6.84497H280.833V14.1575H266.208V36.095H280.833V43.4075Z" fill="black"/>
<path d="M291.809 43.4075H284.496V10.4908C284.496 9.4908 284.85 8.63664 285.559 7.9283C286.277 7.20955 287.142 6.84497 288.142 6.84497C289.152 6.84497 290.022 7.20955 290.746 7.9283L313.746 30.9283V6.84497H321.059V39.7408C321.059 40.7564 320.694 41.6262 319.975 42.345C319.267 43.0533 318.402 43.4075 317.392 43.4075C316.392 43.4075 315.522 43.0429 314.788 42.3033L291.809 19.3241V43.4075Z" fill="black"/>
</g>
</svg>
